<svg xmlns="http://www.w3.org/2000/svg" xmlns:xlink="http://www.w3.org/1999/xlink" width="480" zoomAndPan="magnify" viewBox="0 0 360 107.999999" height="144" preserveAspectRatio="xMidYMid meet" version="1.0"><defs><g/></defs><g fill="#8e0f3a" fill-opacity="1"><g transform="translate(19.57865, 56.729995)"><g><path d="M 29.484375 -34.625 C 31.835938 -34.625 33.890625 -34.269531 35.640625 -33.5625 C 37.390625 -32.851562 38.722656 -31.882812 39.640625 -30.65625 C 40.566406 -29.425781 41.03125 -28.015625 41.03125 -26.421875 C 41.03125 -25.515625 40.90625 -24.679688 40.65625 -23.921875 C 39.65625 -20.421875 36.765625 -18.203125 31.984375 -17.265625 C 33.640625 -16.773438 34.953125 -15.96875 35.921875 -14.84375 C 36.898438 -13.71875 37.390625 -12.320312 37.390625 -10.65625 C 37.390625 -9.894531 37.25 -8.992188 36.96875 -7.953125 C 36.207031 -5.253906 34.671875 -3.253906 32.359375 -1.953125 C 30.054688 -0.648438 26.789062 0 22.5625 0 L 0.9375 0 C 0.207031 0 -0.351562 -0.117188 -0.75 -0.359375 C -1.15625 -0.609375 -1.359375 -0.941406 -1.359375 -1.359375 C -1.359375 -1.554688 -1.304688 -1.78125 -1.203125 -2.03125 C -1.054688 -2.40625 -0.828125 -2.695312 -0.515625 -2.90625 C -0.203125 -3.113281 -0.015625 -3.238281 0.046875 -3.28125 C 0.609375 -3.625 1.0625 -3.976562 1.40625 -4.34375 C 1.75 -4.707031 2.039062 -5.304688 2.28125 -6.140625 L 8.625 -28.546875 C 8.769531 -28.992188 8.84375 -29.425781 8.84375 -29.84375 C 8.84375 -30.226562 8.78125 -30.550781 8.65625 -30.8125 C 8.53125 -31.070312 8.363281 -31.375 8.15625 -31.71875 C 7.851562 -32.164062 7.703125 -32.53125 7.703125 -32.8125 C 7.703125 -32.914062 7.734375 -33.109375 7.796875 -33.390625 C 7.941406 -33.835938 8.242188 -34.15625 8.703125 -34.34375 C 9.171875 -34.53125 9.894531 -34.625 10.875 -34.625 Z M 27.140625 -25.109375 C 27.390625 -25.878906 27.515625 -26.59375 27.515625 -27.25 C 27.515625 -29.050781 26.488281 -29.953125 24.4375 -29.953125 L 22.09375 -29.953125 L 19.34375 -20.234375 L 21.625 -20.234375 C 23.082031 -20.234375 24.234375 -20.585938 25.078125 -21.296875 C 25.929688 -22.003906 26.617188 -23.273438 27.140625 -25.109375 Z M 23.34375 -9.828125 C 23.59375 -10.660156 23.71875 -11.421875 23.71875 -12.109375 C 23.71875 -13.984375 22.640625 -14.921875 20.484375 -14.921875 L 17.890625 -14.921875 L 14.921875 -4.6875 L 17.578125 -4.6875 C 19.066406 -4.6875 20.257812 -5.054688 21.15625 -5.796875 C 22.0625 -6.546875 22.789062 -7.890625 23.34375 -9.828125 Z M 23.34375 -9.828125 "/></g></g></g><g fill="#8e0f3a" fill-opacity="1"><g transform="translate(59.147648, 56.729995)"><g><path d="M 17.625 -27.765625 C 22.03125 -27.765625 25.21875 -27.0625 27.1875 -25.65625 C 29.164062 -24.257812 30.15625 -22.46875 30.15625 -20.28125 C 30.15625 -19.625 30.085938 -19.015625 29.953125 -18.453125 C 29.429688 -16.171875 27.984375 -14.535156 25.609375 -13.546875 C 23.234375 -12.554688 20.4375 -12.0625 17.21875 -12.0625 C 15.582031 -12.0625 14.054688 -12.164062 12.640625 -12.375 C 12.597656 -10.570312 13.078125 -9.304688 14.078125 -8.578125 C 15.085938 -7.847656 16.492188 -7.484375 18.296875 -7.484375 C 19.128906 -7.484375 19.925781 -7.578125 20.6875 -7.765625 C 21.457031 -7.960938 22.429688 -8.25 23.609375 -8.625 C 24.578125 -8.976562 25.234375 -9.15625 25.578125 -9.15625 C 25.960938 -9.15625 26.15625 -8.925781 26.15625 -8.46875 C 26.1875 -7.257812 25.734375 -5.988281 24.796875 -4.65625 C 23.867188 -3.320312 22.484375 -2.1875 20.640625 -1.25 C 18.804688 -0.3125 16.585938 0.15625 13.984375 0.15625 C 10.140625 0.15625 6.984375 -0.8125 4.515625 -2.75 C 2.054688 -4.695312 0.828125 -7.523438 0.828125 -11.234375 C 0.828125 -12.273438 0.96875 -13.488281 1.25 -14.875 C 2.113281 -19.132812 4.007812 -22.347656 6.9375 -24.515625 C 9.875 -26.679688 13.4375 -27.765625 17.625 -27.765625 Z M 13 -15.5 C 13.132812 -15.457031 13.328125 -15.4375 13.578125 -15.4375 C 15.023438 -15.4375 16.128906 -16.113281 16.890625 -17.46875 C 17.660156 -18.820312 18.023438 -20.332031 17.984375 -22 C 17.953125 -22.96875 17.675781 -23.453125 17.15625 -23.453125 C 16.78125 -23.453125 16.332031 -23.144531 15.8125 -22.53125 C 15.289062 -21.925781 14.773438 -21.015625 14.265625 -19.796875 C 13.765625 -18.585938 13.34375 -17.15625 13 -15.5 Z M 13 -15.5 "/></g></g></g><g fill="#8e0f3a" fill-opacity="1"><g transform="translate(88.265432, 56.729995)"><g><path d="M 30.84375 -27.515625 C 32.8125 -27.515625 34.394531 -26.96875 35.59375 -25.875 C 36.789062 -24.78125 37.390625 -23.453125 37.390625 -21.890625 C 37.390625 -20.222656 36.882812 -18.921875 35.875 -17.984375 C 34.875 -17.054688 33.554688 -16.59375 31.921875 -16.59375 C 30.472656 -16.59375 29.347656 -16.960938 28.546875 -17.703125 C 27.753906 -18.453125 27.375 -19.296875 27.40625 -20.234375 C 27.0625 -20.296875 26.765625 -20.15625 26.515625 -19.8125 C 26.273438 -19.46875 26.015625 -18.789062 25.734375 -17.78125 C 25.566406 -17.125 25.238281 -16.519531 24.75 -15.96875 C 27.101562 -15.789062 28.851562 -15.25 30 -14.34375 C 31.144531 -13.445312 31.71875 -12.289062 31.71875 -10.875 C 31.71875 -10.175781 31.597656 -9.476562 31.359375 -8.78125 L 30.9375 -7.171875 C 30.875 -7.003906 30.84375 -6.78125 30.84375 -6.5 C 30.84375 -6.007812 31.066406 -5.765625 31.515625 -5.765625 C 31.929688 -5.765625 32.285156 -5.945312 32.578125 -6.3125 C 32.867188 -6.675781 33.066406 -6.859375 33.171875 -6.859375 C 33.347656 -6.859375 33.488281 -6.742188 33.59375 -6.515625 C 33.695312 -6.296875 33.75 -6.03125 33.75 -5.71875 C 33.78125 -4.71875 33.472656 -3.738281 32.828125 -2.78125 C 32.191406 -1.832031 31.222656 -1.050781 29.921875 -0.4375 C 28.617188 0.164062 27.050781 0.46875 25.21875 0.46875 C 23 0.46875 21.148438 -0.0820312 19.671875 -1.1875 C 18.203125 -2.300781 17.46875 -3.757812 17.46875 -5.5625 C 17.46875 -6.21875 17.609375 -6.960938 17.890625 -7.796875 L 18.875 -10.40625 C 19.050781 -11.03125 19.140625 -11.476562 19.140625 -11.75 C 19.140625 -12.195312 18.988281 -12.523438 18.6875 -12.734375 C 18.394531 -12.941406 17.9375 -13.046875 17.3125 -13.046875 L 16.28125 -13.046875 L 13.9375 -5.40625 C 13.832031 -4.988281 13.78125 -4.625 13.78125 -4.3125 C 13.78125 -3.863281 13.863281 -3.507812 14.03125 -3.25 C 14.207031 -2.988281 14.453125 -2.738281 14.765625 -2.5 C 15.003906 -2.25 15.175781 -2.046875 15.28125 -1.890625 C 15.382812 -1.734375 15.40625 -1.535156 15.34375 -1.296875 C 15.164062 -0.847656 14.816406 -0.519531 14.296875 -0.3125 C 13.773438 -0.101562 12.976562 0 11.90625 0 L 0.046875 0 C -0.847656 0 -1.503906 -0.144531 -1.921875 -0.4375 C -2.335938 -0.738281 -2.476562 -1.128906 -2.34375 -1.609375 C -2.195312 -2.023438 -1.832031 -2.390625 -1.25 -2.703125 C -0.726562 -2.984375 -0.296875 -3.3125 0.046875 -3.6875 C 0.398438 -4.070312 0.695312 -4.679688 0.9375 -5.515625 L 8.84375 -31.453125 C 8.945312 -31.765625 9 -32.023438 9 -32.234375 C 9 -32.617188 8.898438 -32.929688 8.703125 -33.171875 C 8.515625 -33.421875 8.265625 -33.664062 7.953125 -33.90625 C 7.609375 -34.175781 7.359375 -34.414062 7.203125 -34.625 C 7.046875 -34.832031 7.019531 -35.113281 7.125 -35.46875 C 7.332031 -36.257812 8.421875 -36.945312 10.390625 -37.53125 C 12.367188 -38.125 14.4375 -38.421875 16.59375 -38.421875 C 18.601562 -38.421875 20.070312 -38.046875 21 -37.296875 C 21.9375 -36.554688 22.40625 -35.53125 22.40625 -34.21875 C 22.40625 -33.414062 22.285156 -32.648438 22.046875 -31.921875 L 17.53125 -17.15625 L 19.234375 -17.15625 C 19.929688 -17.15625 20.492188 -17.363281 20.921875 -17.78125 C 21.359375 -18.195312 21.695312 -18.804688 21.9375 -19.609375 C 22.8125 -22.171875 23.941406 -24.128906 25.328125 -25.484375 C 26.710938 -26.835938 28.550781 -27.515625 30.84375 -27.515625 Z M 30.84375 -27.515625 "/></g></g></g><g fill="#8e0f3a" fill-opacity="1"><g transform="translate(124.610676, 56.729995)"><g><path d="M 17.625 -27.765625 C 22.03125 -27.765625 25.21875 -27.0625 27.1875 -25.65625 C 29.164062 -24.257812 30.15625 -22.46875 30.15625 -20.28125 C 30.15625 -19.625 30.085938 -19.015625 29.953125 -18.453125 C 29.429688 -16.171875 27.984375 -14.535156 25.609375 -13.546875 C 23.234375 -12.554688 20.4375 -12.0625 17.21875 -12.0625 C 15.582031 -12.0625 14.054688 -12.164062 12.640625 -12.375 C 12.597656 -10.570312 13.078125 -9.304688 14.078125 -8.578125 C 15.085938 -7.847656 16.492188 -7.484375 18.296875 -7.484375 C 19.128906 -7.484375 19.925781 -7.578125 20.6875 -7.765625 C 21.457031 -7.960938 22.429688 -8.25 23.609375 -8.625 C 24.578125 -8.976562 25.234375 -9.15625 25.578125 -9.15625 C 25.960938 -9.15625 26.15625 -8.925781 26.15625 -8.46875 C 26.1875 -7.257812 25.734375 -5.988281 24.796875 -4.65625 C 23.867188 -3.320312 22.484375 -2.1875 20.640625 -1.25 C 18.804688 -0.3125 16.585938 0.15625 13.984375 0.15625 C 10.140625 0.15625 6.984375 -0.8125 4.515625 -2.75 C 2.054688 -4.695312 0.828125 -7.523438 0.828125 -11.234375 C 0.828125 -12.273438 0.96875 -13.488281 1.25 -14.875 C 2.113281 -19.132812 4.007812 -22.347656 6.9375 -24.515625 C 9.875 -26.679688 13.4375 -27.765625 17.625 -27.765625 Z M 13 -15.5 C 13.132812 -15.457031 13.328125 -15.4375 13.578125 -15.4375 C 15.023438 -15.4375 16.128906 -16.113281 16.890625 -17.46875 C 17.660156 -18.820312 18.023438 -20.332031 17.984375 -22 C 17.953125 -22.96875 17.675781 -23.453125 17.15625 -23.453125 C 16.78125 -23.453125 16.332031 -23.144531 15.8125 -22.53125 C 15.289062 -21.925781 14.773438 -21.015625 14.265625 -19.796875 C 13.765625 -18.585938 13.34375 -17.15625 13 -15.5 Z M 13 -15.5 "/></g></g></g><g fill="#8e0f3a" fill-opacity="1"><g transform="translate(153.72846, 56.729995)"><g><path d="M 32.1875 -7.171875 C 32.113281 -7.035156 32.078125 -6.828125 32.078125 -6.546875 C 32.078125 -6.304688 32.140625 -6.113281 32.265625 -5.96875 C 32.390625 -5.832031 32.554688 -5.765625 32.765625 -5.765625 C 33.179688 -5.765625 33.535156 -5.945312 33.828125 -6.3125 C 34.117188 -6.675781 34.316406 -6.859375 34.421875 -6.859375 C 34.597656 -6.859375 34.738281 -6.742188 34.84375 -6.515625 C 34.945312 -6.296875 35 -6.03125 35 -5.71875 C 35.03125 -4.71875 34.695312 -3.738281 34 -2.78125 C 33.3125 -1.832031 32.300781 -1.050781 30.96875 -0.4375 C 29.632812 0.164062 28.03125 0.46875 26.15625 0.46875 C 23.863281 0.46875 22.039062 -0.0546875 20.6875 -1.109375 C 19.34375 -2.171875 18.648438 -3.585938 18.609375 -5.359375 C 18.609375 -6.640625 18.921875 -8.078125 19.546875 -9.671875 L 22.40625 -17.15625 C 22.582031 -17.613281 22.671875 -17.976562 22.671875 -18.25 C 22.671875 -18.695312 22.519531 -19.050781 22.21875 -19.3125 C 21.925781 -19.570312 21.570312 -19.703125 21.15625 -19.703125 C 20.394531 -19.703125 19.664062 -19.347656 18.96875 -18.640625 C 18.28125 -17.929688 17.78125 -17.054688 17.46875 -16.015625 L 14.25 -5.40625 C 14.113281 -5.03125 14.046875 -4.664062 14.046875 -4.3125 C 14.046875 -3.894531 14.128906 -3.554688 14.296875 -3.296875 C 14.472656 -3.035156 14.71875 -2.769531 15.03125 -2.5 C 15.269531 -2.289062 15.441406 -2.097656 15.546875 -1.921875 C 15.648438 -1.742188 15.664062 -1.535156 15.59375 -1.296875 C 15.457031 -0.847656 15.128906 -0.519531 14.609375 -0.3125 C 14.085938 -0.101562 13.273438 0 12.171875 0 L 0.3125 0 C -0.59375 0 -1.242188 -0.144531 -1.640625 -0.4375 C -2.035156 -0.738281 -2.179688 -1.128906 -2.078125 -1.609375 C -1.941406 -2.023438 -1.578125 -2.390625 -0.984375 -2.703125 C -0.460938 -2.984375 -0.03125 -3.3125 0.3125 -3.6875 C 0.65625 -4.070312 0.953125 -4.679688 1.203125 -5.515625 L 5.828125 -20.546875 C 5.890625 -20.710938 5.921875 -20.953125 5.921875 -21.265625 C 5.921875 -21.648438 5.84375 -21.945312 5.6875 -22.15625 C 5.53125 -22.363281 5.28125 -22.625 4.9375 -22.9375 C 4.59375 -23.207031 4.347656 -23.445312 4.203125 -23.65625 C 4.066406 -23.863281 4.050781 -24.140625 4.15625 -24.484375 C 4.363281 -25.285156 5.457031 -25.988281 7.4375 -26.59375 C 9.414062 -27.207031 11.476562 -27.515625 13.625 -27.515625 C 15.351562 -27.515625 16.71875 -27.035156 17.71875 -26.078125 C 18.726562 -25.117188 19.179688 -23.789062 19.078125 -22.09375 C 20.503906 -24.144531 22.015625 -25.5625 23.609375 -26.34375 C 25.203125 -27.125 26.9375 -27.515625 28.8125 -27.515625 C 30.925781 -27.515625 32.628906 -26.867188 33.921875 -25.578125 C 35.222656 -24.296875 35.875 -22.632812 35.875 -20.59375 C 35.875 -19.519531 35.703125 -18.460938 35.359375 -17.421875 Z M 32.1875 -7.171875 "/></g></g></g><g fill="#8e0f3a" fill-opacity="1"><g transform="translate(190.957634, 56.729995)"><g><path d="M 17.625 -27.765625 C 22.03125 -27.765625 25.21875 -27.0625 27.1875 -25.65625 C 29.164062 -24.257812 30.15625 -22.46875 30.15625 -20.28125 C 30.15625 -19.625 30.085938 -19.015625 29.953125 -18.453125 C 29.429688 -16.171875 27.984375 -14.535156 25.609375 -13.546875 C 23.234375 -12.554688 20.4375 -12.0625 17.21875 -12.0625 C 15.582031 -12.0625 14.054688 -12.164062 12.640625 -12.375 C 12.597656 -10.570312 13.078125 -9.304688 14.078125 -8.578125 C 15.085938 -7.847656 16.492188 -7.484375 18.296875 -7.484375 C 19.128906 -7.484375 19.925781 -7.578125 20.6875 -7.765625 C 21.457031 -7.960938 22.429688 -8.25 23.609375 -8.625 C 24.578125 -8.976562 25.234375 -9.15625 25.578125 -9.15625 C 25.960938 -9.15625 26.15625 -8.925781 26.15625 -8.46875 C 26.1875 -7.257812 25.734375 -5.988281 24.796875 -4.65625 C 23.867188 -3.320312 22.484375 -2.1875 20.640625 -1.25 C 18.804688 -0.3125 16.585938 0.15625 13.984375 0.15625 C 10.140625 0.15625 6.984375 -0.8125 4.515625 -2.75 C 2.054688 -4.695312 0.828125 -7.523438 0.828125 -11.234375 C 0.828125 -12.273438 0.96875 -13.488281 1.25 -14.875 C 2.113281 -19.132812 4.007812 -22.347656 6.9375 -24.515625 C 9.875 -26.679688 13.4375 -27.765625 17.625 -27.765625 Z M 13 -15.5 C 13.132812 -15.457031 13.328125 -15.4375 13.578125 -15.4375 C 15.023438 -15.4375 16.128906 -16.113281 16.890625 -17.46875 C 17.660156 -18.820312 18.023438 -20.332031 17.984375 -22 C 17.953125 -22.96875 17.675781 -23.453125 17.15625 -23.453125 C 16.78125 -23.453125 16.332031 -23.144531 15.8125 -22.53125 C 15.289062 -21.925781 14.773438 -21.015625 14.265625 -19.796875 C 13.765625 -18.585938 13.34375 -17.15625 13 -15.5 Z M 13 -15.5 "/></g></g></g><g fill="#8e0f3a" fill-opacity="1"><g transform="translate(220.075419, 56.729995)"><g><path d="M 49.453125 -7.171875 C 49.378906 -7.035156 49.34375 -6.828125 49.34375 -6.546875 C 49.34375 -6.304688 49.40625 -6.113281 49.53125 -5.96875 C 49.65625 -5.832031 49.820312 -5.765625 50.03125 -5.765625 C 50.4375 -5.765625 50.785156 -5.945312 51.078125 -6.3125 C 51.378906 -6.675781 51.582031 -6.859375 51.6875 -6.859375 C 51.863281 -6.859375 52.003906 -6.742188 52.109375 -6.515625 C 52.210938 -6.296875 52.265625 -6.03125 52.265625 -5.71875 C 52.296875 -4.71875 51.960938 -3.738281 51.265625 -2.78125 C 50.578125 -1.832031 49.566406 -1.050781 48.234375 -0.4375 C 46.898438 0.164062 45.296875 0.46875 43.421875 0.46875 C 41.128906 0.46875 39.304688 -0.0546875 37.953125 -1.109375 C 36.609375 -2.171875 35.914062 -3.585938 35.875 -5.359375 C 35.875 -6.640625 36.1875 -8.078125 36.8125 -9.671875 L 39.671875 -17.15625 C 39.847656 -17.613281 39.9375 -17.976562 39.9375 -18.25 C 39.9375 -18.695312 39.785156 -19.050781 39.484375 -19.3125 C 39.191406 -19.570312 38.835938 -19.703125 38.421875 -19.703125 C 37.835938 -19.703125 37.234375 -19.441406 36.609375 -18.921875 C 35.984375 -18.398438 35.425781 -17.585938 34.9375 -16.484375 L 32.078125 -7.171875 C 32.015625 -7.035156 31.984375 -6.828125 31.984375 -6.546875 C 31.984375 -6.304688 32.039062 -6.113281 32.15625 -5.96875 C 32.28125 -5.832031 32.445312 -5.765625 32.65625 -5.765625 C 33.070312 -5.765625 33.425781 -5.945312 33.71875 -6.3125 C 34.007812 -6.675781 34.207031 -6.859375 34.3125 -6.859375 C 34.488281 -6.859375 34.628906 -6.742188 34.734375 -6.515625 C 34.835938 -6.296875 34.890625 -6.03125 34.890625 -5.71875 C 34.921875 -4.71875 34.585938 -3.738281 33.890625 -2.78125 C 33.203125 -1.832031 32.191406 -1.050781 30.859375 -0.4375 C 29.523438 0.164062 27.921875 0.46875 26.046875 0.46875 C 23.765625 0.46875 21.945312 -0.0546875 20.59375 -1.109375 C 19.238281 -2.171875 18.546875 -3.585938 18.515625 -5.359375 C 18.515625 -6.640625 18.828125 -8.078125 19.453125 -9.671875 L 22.3125 -17.15625 C 22.476562 -17.613281 22.5625 -17.976562 22.5625 -18.25 C 22.5625 -18.695312 22.414062 -19.050781 22.125 -19.3125 C 21.832031 -19.570312 21.476562 -19.703125 21.0625 -19.703125 C 20.46875 -19.703125 19.859375 -19.453125 19.234375 -18.953125 C 18.609375 -18.453125 18.09375 -17.644531 17.6875 -16.53125 L 14.25 -5.40625 C 14.113281 -5.03125 14.046875 -4.664062 14.046875 -4.3125 C 14.046875 -3.894531 14.128906 -3.554688 14.296875 -3.296875 C 14.472656 -3.035156 14.71875 -2.769531 15.03125 -2.5 C 15.269531 -2.289062 15.441406 -2.097656 15.546875 -1.921875 C 15.648438 -1.742188 15.664062 -1.535156 15.59375 -1.296875 C 15.457031 -0.847656 15.128906 -0.519531 14.609375 -0.3125 C 14.085938 -0.101562 13.273438 0 12.171875 0 L 0.3125 0 C -0.59375 0 -1.242188 -0.144531 -1.640625 -0.4375 C -2.035156 -0.738281 -2.179688 -1.128906 -2.078125 -1.609375 C -1.941406 -2.023438 -1.578125 -2.390625 -0.984375 -2.703125 C -0.460938 -2.984375 -0.03125 -3.3125 0.3125 -3.6875 C 0.65625 -4.070312 0.953125 -4.679688 1.203125 -5.515625 L 5.828125 -20.546875 C 5.890625 -20.710938 5.921875 -20.953125 5.921875 -21.265625 C 5.921875 -21.648438 5.84375 -21.945312 5.6875 -22.15625 C 5.53125 -22.363281 5.28125 -22.625 4.9375 -22.9375 C 4.59375 -23.207031 4.347656 -23.445312 4.203125 -23.65625 C 4.066406 -23.863281 4.050781 -24.140625 4.15625 -24.484375 C 4.363281 -25.285156 5.457031 -25.988281 7.4375 -26.59375 C 9.414062 -27.207031 11.476562 -27.515625 13.625 -27.515625 C 15.320312 -27.515625 16.664062 -27.046875 17.65625 -26.109375 C 18.644531 -25.171875 19.117188 -23.882812 19.078125 -22.25 C 20.503906 -24.226562 22.003906 -25.597656 23.578125 -26.359375 C 25.160156 -27.128906 26.867188 -27.515625 28.703125 -27.515625 C 30.710938 -27.515625 32.347656 -26.929688 33.609375 -25.765625 C 34.878906 -24.609375 35.582031 -23.09375 35.71875 -21.21875 C 37.207031 -23.570312 38.800781 -25.207031 40.5 -26.125 C 42.207031 -27.050781 44.066406 -27.515625 46.078125 -27.515625 C 48.191406 -27.515625 49.894531 -26.867188 51.1875 -25.578125 C 52.488281 -24.296875 53.140625 -22.632812 53.140625 -20.59375 C 53.140625 -19.519531 52.96875 -18.460938 52.625 -17.421875 Z M 49.453125 -7.171875 "/></g></g></g><g fill="#8e0f3a" fill-opacity="1"><g transform="translate(274.567283, 56.729995)"><g><path d="M 17.625 -27.765625 C 22.03125 -27.765625 25.21875 -27.0625 27.1875 -25.65625 C 29.164062 -24.257812 30.15625 -22.46875 30.15625 -20.28125 C 30.15625 -19.625 30.085938 -19.015625 29.953125 -18.453125 C 29.429688 -16.171875 27.984375 -14.535156 25.609375 -13.546875 C 23.234375 -12.554688 20.4375 -12.0625 17.21875 -12.0625 C 15.582031 -12.0625 14.054688 -12.164062 12.640625 -12.375 C 12.597656 -10.570312 13.078125 -9.304688 14.078125 -8.578125 C 15.085938 -7.847656 16.492188 -7.484375 18.296875 -7.484375 C 19.128906 -7.484375 19.925781 -7.578125 20.6875 -7.765625 C 21.457031 -7.960938 22.429688 -8.25 23.609375 -8.625 C 24.578125 -8.976562 25.234375 -9.15625 25.578125 -9.15625 C 25.960938 -9.15625 26.15625 -8.925781 26.15625 -8.46875 C 26.1875 -7.257812 25.734375 -5.988281 24.796875 -4.65625 C 23.867188 -3.320312 22.484375 -2.1875 20.640625 -1.25 C 18.804688 -0.3125 16.585938 0.15625 13.984375 0.15625 C 10.140625 0.15625 6.984375 -0.8125 4.515625 -2.75 C 2.054688 -4.695312 0.828125 -7.523438 0.828125 -11.234375 C 0.828125 -12.273438 0.96875 -13.488281 1.25 -14.875 C 2.113281 -19.132812 4.007812 -22.347656 6.9375 -24.515625 C 9.875 -26.679688 13.4375 -27.765625 17.625 -27.765625 Z M 13 -15.5 C 13.132812 -15.457031 13.328125 -15.4375 13.578125 -15.4375 C 15.023438 -15.4375 16.128906 -16.113281 16.890625 -17.46875 C 17.660156 -18.820312 18.023438 -20.332031 17.984375 -22 C 17.953125 -22.96875 17.675781 -23.453125 17.15625 -23.453125 C 16.78125 -23.453125 16.332031 -23.144531 15.8125 -22.53125 C 15.289062 -21.925781 14.773438 -21.015625 14.265625 -19.796875 C 13.765625 -18.585938 13.34375 -17.15625 13 -15.5 Z M 13 -15.5 "/></g></g></g><g fill="#8e0f3a" fill-opacity="1"><g transform="translate(303.685079, 56.729995)"><g><path d="M 32.1875 -7.171875 C 32.113281 -7.035156 32.078125 -6.828125 32.078125 -6.546875 C 32.078125 -6.304688 32.140625 -6.113281 32.265625 -5.96875 C 32.390625 -5.832031 32.554688 -5.765625 32.765625 -5.765625 C 33.179688 -5.765625 33.535156 -5.945312 33.828125 -6.3125 C 34.117188 -6.675781 34.316406 -6.859375 34.421875 -6.859375 C 34.597656 -6.859375 34.738281 -6.742188 34.84375 -6.515625 C 34.945312 -6.296875 35 -6.03125 35 -5.71875 C 35.03125 -4.71875 34.695312 -3.738281 34 -2.78125 C 33.3125 -1.832031 32.300781 -1.050781 30.96875 -0.4375 C 29.632812 0.164062 28.03125 0.46875 26.15625 0.46875 C 23.863281 0.46875 22.039062 -0.0546875 20.6875 -1.109375 C 19.34375 -2.171875 18.648438 -3.585938 18.609375 -5.359375 C 18.609375 -6.640625 18.921875 -8.078125 19.546875 -9.671875 L 22.40625 -17.15625 C 22.582031 -17.613281 22.671875 -17.976562 22.671875 -18.25 C 22.671875 -18.695312 22.519531 -19.050781 22.21875 -19.3125 C 21.925781 -19.570312 21.570312 -19.703125 21.15625 -19.703125 C 20.394531 -19.703125 19.664062 -19.347656 18.96875 -18.640625 C 18.28125 -17.929688 17.78125 -17.054688 17.46875 -16.015625 L 14.25 -5.40625 C 14.113281 -5.03125 14.046875 -4.664062 14.046875 -4.3125 C 14.046875 -3.894531 14.128906 -3.554688 14.296875 -3.296875 C 14.472656 -3.035156 14.71875 -2.769531 15.03125 -2.5 C 15.269531 -2.289062 15.441406 -2.097656 15.546875 -1.921875 C 15.648438 -1.742188 15.664062 -1.535156 15.59375 -1.296875 C 15.457031 -0.847656 15.128906 -0.519531 14.609375 -0.3125 C 14.085938 -0.101562 13.273438 0 12.171875 0 L 0.3125 0 C -0.59375 0 -1.242188 -0.144531 -1.640625 -0.4375 C -2.035156 -0.738281 -2.179688 -1.128906 -2.078125 -1.609375 C -1.941406 -2.023438 -1.578125 -2.390625 -0.984375 -2.703125 C -0.460938 -2.984375 -0.03125 -3.3125 0.3125 -3.6875 C 0.65625 -4.070312 0.953125 -4.679688 1.203125 -5.515625 L 5.828125 -20.546875 C 5.890625 -20.710938 5.921875 -20.953125 5.921875 -21.265625 C 5.921875 -21.648438 5.84375 -21.945312 5.6875 -22.15625 C 5.53125 -22.363281 5.28125 -22.625 4.9375 -22.9375 C 4.59375 -23.207031 4.347656 -23.445312 4.203125 -23.65625 C 4.066406 -23.863281 4.050781 -24.140625 4.15625 -24.484375 C 4.363281 -25.285156 5.457031 -25.988281 7.4375 -26.59375 C 9.414062 -27.207031 11.476562 -27.515625 13.625 -27.515625 C 15.351562 -27.515625 16.71875 -27.035156 17.71875 -26.078125 C 18.726562 -25.117188 19.179688 -23.789062 19.078125 -22.09375 C 20.503906 -24.144531 22.015625 -25.5625 23.609375 -26.34375 C 25.203125 -27.125 26.9375 -27.515625 28.8125 -27.515625 C 30.925781 -27.515625 32.628906 -26.867188 33.921875 -25.578125 C 35.222656 -24.296875 35.875 -22.632812 35.875 -20.59375 C 35.875 -19.519531 35.703125 -18.460938 35.359375 -17.421875 Z M 32.1875 -7.171875 "/></g></g></g><g fill="#cd214b" fill-opacity="1"><g transform="translate(116.972651, 85.196263)"><g><path d="M 3.578125 -4.34375 C 1.691406 -4.78125 0.75 -5.582031 0.75 -6.75 C 0.75 -7.613281 1.054688 -8.265625 1.671875 -8.703125 C 2.273438 -9.128906 2.976562 -9.34375 3.78125 -9.34375 C 5.582031 -9.34375 6.648438 -8.671875 6.984375 -7.328125 L 5.953125 -7.328125 C 5.773438 -8.128906 5.050781 -8.53125 3.78125 -8.53125 C 2.90625 -8.53125 2.289062 -8.265625 1.9375 -7.734375 C 1.800781 -7.535156 1.734375 -7.289062 1.734375 -7 C 1.734375 -6.425781 2.039062 -5.988281 2.65625 -5.6875 C 2.9375 -5.53125 3.550781 -5.332031 4.5 -5.09375 C 5.4375 -4.84375 6.113281 -4.570312 6.53125 -4.28125 C 7.125 -3.863281 7.421875 -3.28125 7.421875 -2.53125 C 7.421875 -1.601562 7.050781 -0.898438 6.3125 -0.421875 C 5.707031 -0.0234375 4.953125 0.171875 4.046875 0.171875 C 2.003906 0.171875 0.820312 -0.601562 0.5 -2.15625 L 1.625 -2.15625 C 1.789062 -1.175781 2.597656 -0.6875 4.046875 -0.6875 C 5.078125 -0.6875 5.796875 -0.972656 6.203125 -1.546875 C 6.359375 -1.765625 6.4375 -2.070312 6.4375 -2.46875 C 6.4375 -2.84375 6.289062 -3.148438 6 -3.390625 C 5.570312 -3.734375 4.765625 -4.050781 3.578125 -4.34375 Z M 3.578125 -4.34375 "/></g></g></g><g fill="#cd214b" fill-opacity="1"><g transform="translate(127.022875, 85.196263)"><g><path d="M 1.96875 0 L 1.015625 0 L 1.015625 -10.140625 L 1.96875 -10.140625 L 1.96875 -4.921875 C 2.164062 -5.253906 2.414062 -5.53125 2.71875 -5.75 C 3.039062 -5.96875 3.414062 -6.078125 3.84375 -6.078125 C 4.269531 -6.078125 4.613281 -6.019531 4.875 -5.90625 C 5.132812 -5.769531 5.351562 -5.601562 5.53125 -5.40625 C 5.894531 -4.976562 6.078125 -4.414062 6.078125 -3.71875 L 6.078125 0 L 5.125 0 L 5.125 -3.71875 C 5.125 -4.101562 5.039062 -4.4375 4.875 -4.71875 C 4.6875 -4.988281 4.390625 -5.125 3.984375 -5.125 C 3.578125 -5.125 3.25 -5.0625 3 -4.9375 C 2.75 -4.800781 2.546875 -4.617188 2.390625 -4.390625 C 2.109375 -3.953125 1.96875 -3.316406 1.96875 -2.484375 Z M 1.96875 0 "/></g></g></g><g fill="#cd214b" fill-opacity="1"><g transform="translate(136.194067, 85.196263)"><g><path d="M 5.890625 -3 C 5.890625 -3.59375 5.675781 -4.101562 5.25 -4.53125 C 4.820312 -4.957031 4.3125 -5.171875 3.71875 -5.171875 C 3.125 -5.171875 2.613281 -4.957031 2.1875 -4.53125 C 1.769531 -4.101562 1.5625 -3.59375 1.5625 -3 C 1.5625 -2.414062 1.769531 -1.910156 2.1875 -1.484375 C 2.613281 -1.066406 3.125 -0.859375 3.71875 -0.859375 C 4.3125 -0.859375 4.820312 -1.066406 5.25 -1.484375 C 5.675781 -1.910156 5.890625 -2.414062 5.890625 -3 Z M 6.828125 -3 C 6.828125 -2.132812 6.523438 -1.40625 5.921875 -0.8125 C 5.304688 -0.207031 4.570312 0.09375 3.71875 0.09375 C 2.875 0.09375 2.144531 -0.207031 1.53125 -0.8125 C 0.914062 -1.40625 0.609375 -2.132812 0.609375 -3 C 0.609375 -3.863281 0.914062 -4.597656 1.53125 -5.203125 C 2.132812 -5.804688 2.863281 -6.109375 3.71875 -6.109375 C 4.570312 -6.109375 5.304688 -5.804688 5.921875 -5.203125 C 6.523438 -4.597656 6.828125 -3.863281 6.828125 -3 Z M 6.828125 -3 "/></g></g></g><g fill="#cd214b" fill-opacity="1"><g transform="translate(145.919724, 85.196263)"><g><path d="M 5.890625 -3 C 5.890625 -3.59375 5.675781 -4.101562 5.25 -4.53125 C 4.820312 -4.957031 4.3125 -5.171875 3.71875 -5.171875 C 3.125 -5.171875 2.613281 -4.957031 2.1875 -4.53125 C 1.769531 -4.101562 1.5625 -3.59375 1.5625 -3 C 1.5625 -2.414062 1.769531 -1.910156 2.1875 -1.484375 C 2.613281 -1.066406 3.125 -0.859375 3.71875 -0.859375 C 4.3125 -0.859375 4.820312 -1.066406 5.25 -1.484375 C 5.675781 -1.910156 5.890625 -2.414062 5.890625 -3 Z M 6.828125 -3 C 6.828125 -2.132812 6.523438 -1.40625 5.921875 -0.8125 C 5.304688 -0.207031 4.570312 0.09375 3.71875 0.09375 C 2.875 0.09375 2.144531 -0.207031 1.53125 -0.8125 C 0.914062 -1.40625 0.609375 -2.132812 0.609375 -3 C 0.609375 -3.863281 0.914062 -4.597656 1.53125 -5.203125 C 2.132812 -5.804688 2.863281 -6.109375 3.71875 -6.109375 C 4.570312 -6.109375 5.304688 -5.804688 5.921875 -5.203125 C 6.523438 -4.597656 6.828125 -3.863281 6.828125 -3 Z M 6.828125 -3 "/></g></g></g><g fill="#cd214b" fill-opacity="1"><g transform="translate(155.645382, 85.196263)"><g><path d="M 0.265625 -5.078125 L 0.265625 -5.953125 L 1.765625 -5.953125 L 1.765625 -8.265625 L 2.703125 -8.265625 L 2.703125 -5.953125 L 4.1875 -5.953125 L 4.1875 -5.078125 L 2.703125 -5.078125 L 2.703125 0 L 1.765625 0 L 1.765625 -5.078125 Z M 0.265625 -5.078125 "/></g></g></g><g fill="#cd214b" fill-opacity="1"><g transform="translate(162.382336, 85.196263)"><g/></g></g><g fill="#cd214b" fill-opacity="1"><g transform="translate(168.321407, 85.196263)"><g><path d="M 4.578125 -4.328125 L 4.578125 0 L 3.625 0 L 3.625 -4.328125 L 0.140625 -9.203125 L 1.359375 -9.203125 L 4.09375 -5.265625 L 6.84375 -9.203125 L 8.046875 -9.203125 Z M 4.578125 -4.328125 "/></g></g></g><g fill="#cd214b" fill-opacity="1"><g transform="translate(178.790851, 85.196263)"><g><path d="M 5.890625 -3 C 5.890625 -3.59375 5.675781 -4.101562 5.25 -4.53125 C 4.820312 -4.957031 4.3125 -5.171875 3.71875 -5.171875 C 3.125 -5.171875 2.613281 -4.957031 2.1875 -4.53125 C 1.769531 -4.101562 1.5625 -3.59375 1.5625 -3 C 1.5625 -2.414062 1.769531 -1.910156 2.1875 -1.484375 C 2.613281 -1.066406 3.125 -0.859375 3.71875 -0.859375 C 4.3125 -0.859375 4.820312 -1.066406 5.25 -1.484375 C 5.675781 -1.910156 5.890625 -2.414062 5.890625 -3 Z M 6.828125 -3 C 6.828125 -2.132812 6.523438 -1.40625 5.921875 -0.8125 C 5.304688 -0.207031 4.570312 0.09375 3.71875 0.09375 C 2.875 0.09375 2.144531 -0.207031 1.53125 -0.8125 C 0.914062 -1.40625 0.609375 -2.132812 0.609375 -3 C 0.609375 -3.863281 0.914062 -4.597656 1.53125 -5.203125 C 2.132812 -5.804688 2.863281 -6.109375 3.71875 -6.109375 C 4.570312 -6.109375 5.304688 -5.804688 5.921875 -5.203125 C 6.523438 -4.597656 6.828125 -3.863281 6.828125 -3 Z M 6.828125 -3 "/></g></g></g><g fill="#cd214b" fill-opacity="1"><g transform="translate(188.516509, 85.196263)"><g><path d="M 5.125 -1.015625 C 4.6875 -0.253906 4.023438 0.125 3.140625 0.125 C 2.472656 0.125 1.945312 -0.0976562 1.5625 -0.546875 C 1.195312 -0.984375 1.015625 -1.546875 1.015625 -2.234375 L 1.015625 -5.953125 L 1.96875 -5.953125 L 1.96875 -2.234375 C 1.96875 -1.847656 2.054688 -1.519531 2.234375 -1.25 C 2.398438 -0.96875 2.6875 -0.828125 3.09375 -0.828125 C 3.832031 -0.828125 4.359375 -1.0625 4.671875 -1.53125 C 4.972656 -1.988281 5.125 -2.632812 5.125 -3.46875 L 5.125 -5.953125 L 6.078125 -5.953125 L 6.078125 0 L 5.125 0 Z M 5.125 -1.015625 "/></g></g></g><g fill="#cd214b" fill-opacity="1"><g transform="translate(197.6877, 85.196263)"><g><path d="M 4.078125 -4.71875 C 3.859375 -4.914062 3.625 -5.015625 3.375 -5.015625 C 3.125 -5.015625 2.914062 -4.945312 2.75 -4.8125 C 2.5625 -4.664062 2.410156 -4.492188 2.296875 -4.296875 C 2.078125 -3.898438 1.96875 -3.460938 1.96875 -2.984375 L 1.96875 0 L 1.015625 0 L 1.015625 -5.953125 L 1.96875 -5.953125 L 1.96875 -4.71875 L 2 -4.96875 C 2.3125 -5.707031 2.804688 -6.078125 3.484375 -6.078125 C 3.679688 -6.078125 3.878906 -6.035156 4.078125 -5.953125 Z M 4.078125 -4.71875 "/></g></g></g><g fill="#cd214b" fill-opacity="1"><g transform="translate(204.181238, 85.196263)"><g/></g></g><g fill="#cd214b" fill-opacity="1"><g transform="translate(210.120309, 85.196263)"><g><path d="M 3.578125 -4.34375 C 1.691406 -4.78125 0.75 -5.582031 0.75 -6.75 C 0.75 -7.613281 1.054688 -8.265625 1.671875 -8.703125 C 2.273438 -9.128906 2.976562 -9.34375 3.78125 -9.34375 C 5.582031 -9.34375 6.648438 -8.671875 6.984375 -7.328125 L 5.953125 -7.328125 C 5.773438 -8.128906 5.050781 -8.53125 3.78125 -8.53125 C 2.90625 -8.53125 2.289062 -8.265625 1.9375 -7.734375 C 1.800781 -7.535156 1.734375 -7.289062 1.734375 -7 C 1.734375 -6.425781 2.039062 -5.988281 2.65625 -5.6875 C 2.9375 -5.53125 3.550781 -5.332031 4.5 -5.09375 C 5.4375 -4.84375 6.113281 -4.570312 6.53125 -4.28125 C 7.125 -3.863281 7.421875 -3.28125 7.421875 -2.53125 C 7.421875 -1.601562 7.050781 -0.898438 6.3125 -0.421875 C 5.707031 -0.0234375 4.953125 0.171875 4.046875 0.171875 C 2.003906 0.171875 0.820312 -0.601562 0.5 -2.15625 L 1.625 -2.15625 C 1.789062 -1.175781 2.597656 -0.6875 4.046875 -0.6875 C 5.078125 -0.6875 5.796875 -0.972656 6.203125 -1.546875 C 6.359375 -1.765625 6.4375 -2.070312 6.4375 -2.46875 C 6.4375 -2.84375 6.289062 -3.148438 6 -3.390625 C 5.570312 -3.734375 4.765625 -4.050781 3.578125 -4.34375 Z M 3.578125 -4.34375 "/></g></g></g><g fill="#cd214b" fill-opacity="1"><g transform="translate(220.170533, 85.196263)"><g><path d="M 1.96875 0 L 1.015625 0 L 1.015625 -10.140625 L 1.96875 -10.140625 L 1.96875 -4.921875 C 2.164062 -5.253906 2.414062 -5.53125 2.71875 -5.75 C 3.039062 -5.96875 3.414062 -6.078125 3.84375 -6.078125 C 4.269531 -6.078125 4.613281 -6.019531 4.875 -5.90625 C 5.132812 -5.769531 5.351562 -5.601562 5.53125 -5.40625 C 5.894531 -4.976562 6.078125 -4.414062 6.078125 -3.71875 L 6.078125 0 L 5.125 0 L 5.125 -3.71875 C 5.125 -4.101562 5.039062 -4.4375 4.875 -4.71875 C 4.6875 -4.988281 4.390625 -5.125 3.984375 -5.125 C 3.578125 -5.125 3.25 -5.0625 3 -4.9375 C 2.75 -4.800781 2.546875 -4.617188 2.390625 -4.390625 C 2.109375 -3.953125 1.96875 -3.316406 1.96875 -2.484375 Z M 1.96875 0 "/></g></g></g><g fill="#cd214b" fill-opacity="1"><g transform="translate(229.341725, 85.196263)"><g><path d="M 5.890625 -3 C 5.890625 -3.59375 5.675781 -4.101562 5.25 -4.53125 C 4.820312 -4.957031 4.3125 -5.171875 3.71875 -5.171875 C 3.125 -5.171875 2.613281 -4.957031 2.1875 -4.53125 C 1.769531 -4.101562 1.5625 -3.59375 1.5625 -3 C 1.5625 -2.414062 1.769531 -1.910156 2.1875 -1.484375 C 2.613281 -1.066406 3.125 -0.859375 3.71875 -0.859375 C 4.3125 -0.859375 4.820312 -1.066406 5.25 -1.484375 C 5.675781 -1.910156 5.890625 -2.414062 5.890625 -3 Z M 6.828125 -3 C 6.828125 -2.132812 6.523438 -1.40625 5.921875 -0.8125 C 5.304688 -0.207031 4.570312 0.09375 3.71875 0.09375 C 2.875 0.09375 2.144531 -0.207031 1.53125 -0.8125 C 0.914062 -1.40625 0.609375 -2.132812 0.609375 -3 C 0.609375 -3.863281 0.914062 -4.597656 1.53125 -5.203125 C 2.132812 -5.804688 2.863281 -6.109375 3.71875 -6.109375 C 4.570312 -6.109375 5.304688 -5.804688 5.921875 -5.203125 C 6.523438 -4.597656 6.828125 -3.863281 6.828125 -3 Z M 6.828125 -3 "/></g></g></g><g fill="#cd214b" fill-opacity="1"><g transform="translate(239.067382, 85.196263)"><g><path d="M 0.265625 -5.078125 L 0.265625 -5.953125 L 1.765625 -5.953125 L 1.765625 -8.265625 L 2.703125 -8.265625 L 2.703125 -5.953125 L 4.1875 -5.953125 L 4.1875 -5.078125 L 2.703125 -5.078125 L 2.703125 0 L 1.765625 0 L 1.765625 -5.078125 Z M 0.265625 -5.078125 "/></g></g></g></svg>